<?xml version="1.0" encoding="UTF-8"?>
<svg width="1024px" height="33px" viewBox="0 0 1024 33" version="1.1" xmlns="http://www.w3.org/2000/svg" xmlns:xlink="http://www.w3.org/1999/xlink">
    <!-- Generator: Sketch 52.2 (67145) - http://www.bohemiancoding.com/sketch -->
    <title>Path</title>
    <desc>Created with Sketch.</desc>
    <g id="Page-1" stroke="none" stroke-width="1" fill="none" fill-rule="evenodd">
        <g id="Desktop" transform="translate(0.000000, -332.000000)" fill="#FFFFFF">
            <path d="M0,365 C21.4465952,353.869718 51.4465952,347.203052 90,345 C119.669893,343.304578 133.83252,355 175,355 C216.16748,355 204.636251,345 255,345 C307.636251,345 321.051428,355 381,355 C440.051428,355 443.59972,345 493,345 C541.09972,345 545.543607,356.999662 576,355 C644.543607,350.499662 646.549614,332 691,332 C735.049614,332 703.848349,355 753,355 C802.848349,355 831.972758,332 889,332 C945.472758,332 932.9815,343.506589 980,355 C993.654334,358.337726 1008.321,361.671059 1024,365" id="Path"></path>
        </g>
    </g>
</svg>